<svg height="512" viewBox="0 0 64 64" width="512" xmlns="http://www.w3.org/2000/svg"><path d="m38 19v24a2.006 2.006 0 0 1 -2 2h-24a2.006 2.006 0 0 1 -2-2v-24z" fill="#ffda44"/><path d="m54 8v30a2.006 2.006 0 0 1 -2 2h-10v-34h10a2.006 2.006 0 0 1 2 2z" fill="#78b9eb"/><path d="m48 10a1.992 1.992 0 0 1 1.31 3.5 2 2 0 1 1 -2.62 0 1.992 1.992 0 0 1 1.31-3.5z" fill="#ffda44"/><path d="m42 6v34h-4v-19-2-13z" fill="#46f8ff"/><rect fill="#898890" height="20" rx="2" width="28" x="10" y="3"/><path d="m14 16h20v4h-20z" fill="#1a6fb0"/><path d="m14 6h20v10h-20z" fill="#bdfdff"/><path d="m32 45v14l-3 2-4-2-3 2-3-2-3 2v-16z" fill="#ffdaaa"/><g fill="#898890"><path d="m18 30a2 2 0 1 1 2-2 2 2 0 0 1 -2 2z"/><path d="m24 30a2 2 0 1 1 2-2 2 2 0 0 1 -2 2z"/><path d="m30 30a2 2 0 1 1 2-2 2 2 0 0 1 -2 2z"/><path d="m18 36a2 2 0 1 1 2-2 2 2 0 0 1 -2 2z"/><path d="m24 36a2 2 0 1 1 2-2 2 2 0 0 1 -2 2z"/><path d="m30 36a2 2 0 1 1 2-2 2 2 0 0 1 -2 2z"/><path d="m18 42a2 2 0 1 1 2-2 2 2 0 0 1 -2 2z"/><path d="m24 42a2 2 0 1 1 2-2 2 2 0 0 1 -2 2z"/><path d="m30 42a2 2 0 1 1 2-2 2 2 0 0 1 -2 2z"/></g><path d="m19 53h3v2h-3z" fill="#1a6fb0"/><path d="m24 53h5v2h-5z" fill="#1a6fb0"/><path d="m19 49h10v2h-10z" fill="#1a6fb0"/><path d="m17 9h4v2h-4z" fill="#1a6fb0"/><path d="m45 33h2v4h-2z" fill="#1a6fb0"/><path d="m49 30h2v7h-2z" fill="#1a6fb0"/></svg>